inDegrees=no
num_controls=7
num_derivatives=13
num_iterations=81
num_multipliers=7
num_parameters=0
num_slacks=7
num_states=26
objective=0.428975
objective_accelerations=0.068699
objective_balance=0.003555
objective_effort=0.027981
objective_height=0.323356
objective_ligament=0.005384
solver_duration=1067.725412
status=Solve_Succeeded
success=true
DataType=double
version=3
OpenSimVersion=4.5
endheader
time	/jointset/ground_pelvis/pelvis_tilt/value	/jointset/ground_pelvis/pelvis_tx/value	/jointset/ground_pelvis/pelvis_ty/value	/jointset/hip_l/hip_flexion_l/value	/jointset/hip_l/hip_adduction_l/value	/jointset/hip_l/hip_rotation_l/value	/jointset/back/lumbar_extension/value	/jointset/patellofemoral_l/patellar_flexion_l/value	/jointset/knee_l/knee_flexion_l/value	/jointset/knee_l/knee_adduction_l/value	/jointset/knee_l/knee_rotation_l/value	/jointset/ankle_l/ankle_angle_l/value	/jointset/subtalar_l/subtalar_angle_l/value	/jointset/ground_pelvis/pelvis_tilt/speed	/jointset/ground_pelvis/pelvis_tx/speed	/jointset/ground_pelvis/pelvis_ty/speed	/jointset/hip_l/hip_flexion_l/speed	/jointset/hip_l/hip_adduction_l/speed	/jointset/hip_l/hip_rotation_l/speed	/jointset/back/lumbar_extension/speed	/jointset/patellofemoral_l/patellar_flexion_l/speed	/jointset/knee_l/knee_flexion_l/speed	/jointset/knee_l/knee_adduction_l/speed	/jointset/knee_l/knee_rotation_l/speed	/jointset/ankle_l/ankle_angle_l/speed	/jointset/subtalar_l/subtalar_angle_l/speed	/forceset/tau_hip_flexion_l	/forceset/tau_hip_adduction_l	/forceset/tau_hip_rotation_l	/forceset/tau_knee_flexion_l	/forceset/tau_ankle_angle_l	/forceset/tau_subtalar_angle_l	/forceset/tau_lumbar_extension	lambda_cid13_p0	lambda_cid13_p1	lambda_cid13_p2	lambda_cid13_p3	lambda_cid13_p4	lambda_cid13_p5	lambda_cid14_p0	/jointset/ground_pelvis/pelvis_tilt/accel	/jointset/ground_pelvis/pelvis_tx/accel	/jointset/ground_pelvis/pelvis_ty/accel	/jointset/hip_l/hip_flexion_l/accel	/jointset/hip_l/hip_adduction_l/accel	/jointset/hip_l/hip_rotation_l/accel	/jointset/back/lumbar_extension/accel	/jointset/patellofemoral_l/patellar_flexion_l/accel	/jointset/knee_l/knee_flexion_l/accel	/jointset/knee_l/knee_adduction_l/accel	/jointset/knee_l/knee_rotation_l/accel	/jointset/ankle_l/ankle_angle_l/accel	/jointset/subtalar_l/subtalar_angle_l/accel	gamma_cid13_p0	gamma_cid13_p1	gamma_cid13_p2	gamma_cid13_p3	gamma_cid13_p4	gamma_cid13_p5	gamma_cid14_p0
0.5	-0.3800065303289611	-0.05630928479027498	0.707498650465344	1.309731114885197	-0.445725667982289	-0.1510688734682825	-0.2582225835139911	1.00552016767508	1.005520167675181	-0.09425881462043272	-0.1578172732077094	0.158785551022571	-0.0158688128515607	-0.8120132754446056	-0.207620939858377	-0.7459520283251218	2.998040755455174	-0.1799952132064256	0.9056496040056269	-0.0811295504875896	2.482381078068834	2.482381078069023	0.22336351638517	-0.09847927386260834	0.539059719905415	0.0736431203284575	-0.1879232517497836	0.01185827104694023	-0.01025698203935548	-0.2511436443777247	0.08332988246970369	0.03925077564033879	0.1812195545491957	-5.51582457343044	-18.40886311893919	5.258131699189741	-12.11479257853094	-518.9207569629569	-56.42897981890781	-15.66501337037972	1.368788384261026	0.9161295289463687	-0.5784786554238384	-1.940766442527671	1.000926763184112	-0.3948783935103991	1.161312367562921	-1.827143576092751	-1.827143576092747	0.2649551731665439	0.196862936437688	-1.060323762813229	0.6143690730231149	-9.851630083701561e-07	9.927963609792446e-07	8.037100319981215e-06	9.61401942004739e-07	-1.254723693518505e-06	2.14865732240138e-06	-9.318416768861483e-07
0.51	-0.3880559606595975	-0.05833957997591075	0.7000119031325661	1.339609044591235	-0.4474773297030758	-0.1420254717085914	-0.2589776428553139	1.030249019103408	1.030249019103454	-0.09202171064605529	-0.1587895828065731	0.1641213986999895	-0.01510473001324434	-0.7977234260720074	-0.1984356410658766	-0.751231241959098	2.977145505610524	-0.1703391262587218	0.903023030275114	-0.06998105335853923	2.4630789667215	2.463078966721421	0.2239450732742897	-0.09594210172388003	0.5279979542056679	0.07912144024582733	-0.1943666654749185	0.01187332464246192	-0.009661439226030414	-0.2549385414034556	0.08226201676443379	0.03898756753189657	0.186117874448851	-6.161129186233066	-18.10481281075608	5.121987011925691	-11.6324273308925	-524.0611411469575	-56.08529789643671	-14.55004153923306	1.481334598742295	0.9202840509680505	-0.4779522949756356	-2.224037818997314	0.9465420881713545	-0.1984794406315846	1.076808048393547	-2.028100012144195	-2.028100012184404	-0.06182253234221469	0.2898071842409342	-1.145741894463214	0.505697572978029	-7.602746875440578e-07	5.497079311221265e-07	5.972264924901938e-06	6.648341821238736e-07	-9.709622174031358e-07	1.715067314725737e-06	-7.362699005787345e-07
0.52	-0.3959580422195099	-0.06027791137430836	0.6924773017479302	1.369265995086114	-0.4491327120688622	-0.133008722201767	-0.259624179292782	1.054775578398648	1.054775578398633	-0.08978210679860933	-0.159734988117716	0.1693433009362297	-0.01428763715137742	-0.7825435213000879	-0.1892281824107446	-0.7555228386967157	2.953844913223322	-0.1607393422067096	0.9003191534322119	-0.05942496971678833	2.441922651450548	2.441922651450201	0.2238634909983372	-0.09309841631913079	0.516270631669611	0.08424512503856219	-0.2008100792000471	0.01188837823799647	-0.009065896412909008	-0.25873343842918	0.08119415105916829	0.03872435942347317	0.191016194348509	-6.805194171997925	-17.79878007284311	4.983019545164568	-11.22017715334678	-529.225895020292	-55.82250582529278	-13.45452033572662	1.546799464125337	0.920561501472662	-0.3809552761521599	-2.421834951038282	0.9896661840457661	-0.4103390159882261	1.042829670103051	-2.197984360816251	-2.197984360816196	0.1323273401521232	0.2581655896418811	-1.193435130075203	0.543442048096113	-4.011732389093743e-07	-2.690570916367123e-07	2.383814811723595e-06	1.334735206400193e-07	-5.181297031011708e-07	7.206231134926782e-07	-3.950302851107012e-07
0.53	-0.4037046338111462	-0.06212411613389948	0.6849047782702447	1.398678888696398	-0.4506912755492667	-0.1240266890060233	-0.260167982963638	1.079081563663337	1.079081563663314	-0.08753868961533698	-0.160653501731298	0.1744450892189057	-0.01341937178169527	-0.7666649116459314	-0.1800108103820292	-0.7588062296836856	2.928342859873088	-0.1509835149383636	0.8960446475368676	-0.04946268058371562	2.418951736642842	2.418951736642728	0.2247283834134239	-0.09056335744728358	0.5039895829301287	0.0893539077200777	-0.2064068145415029	0.01114432078042855	-0.008440019962286278	-0.2638269975493582	0.08169857083367044	0.03835635027608752	0.1952444989843721	-6.95687565050568	-17.53037399956035	4.846540086170296	-11.1351012669478	-534.4820033676843	-55.66783723657723	-12.37844680761028	1.624857116390446	0.9225897973730893	-0.275742992115953	-2.673054090672986	0.9670234586580925	-0.4426045647497188	0.9538911155679366	-2.395001608594116	-2.39500160855928	0.04970860524198194	0.2574391775331463	-1.260090986852039	0.4865450586173501	-2.019116460414146e-07	-7.272297248360487e-07	3.815830635083952e-07	-1.69338132860803e-07	-2.573124903357611e-07	1.719496945051495e-07	-2.078657306793367e-07
